<svg width="100" height="100" viewBox="0 0 100 100" fill="none" xmlns="http://www.w3.org/2000/svg">
<g clip-path="url(#clip0_30_2)">
<path d="M50 0C22.4308 0 0 22.4308 0 50C0 77.5692 22.4308 100 50 100C77.5692 100 100 77.5692 100 50C100 22.4308 77.5692 0 50 0ZM37.177 15.3846H62.8155C74.8347 15.3846 84.6154 25.1616 84.6154 37.177V62.8155C84.6154 74.8347 74.8384 84.6154 62.823 84.6154H37.1845C25.1653 84.6154 15.3846 74.8384 15.3846 62.823V37.1845C15.3846 25.1653 25.1616 15.3846 37.177 15.3846ZM37.177 23.0769C29.4039 23.0769 23.0769 29.4076 23.0769 37.1845V62.823C23.0769 70.5961 29.4076 76.9231 37.1845 76.9231H62.823C70.5961 76.9231 76.9231 70.5924 76.9231 62.8155V37.177C76.9231 29.4039 70.5924 23.0769 62.8155 23.0769H37.177ZM67.9537 29.4847C69.3691 29.4847 70.5153 30.6309 70.5153 32.0463C70.5153 33.4617 69.3691 34.6154 67.9537 34.6154C66.5383 34.6154 65.3846 33.4617 65.3846 32.0463C65.3846 30.6309 66.5383 29.4847 67.9537 29.4847ZM50 30.7692C60.6038 30.7692 69.2308 39.3962 69.2308 50C69.2308 60.6038 60.6038 69.2308 50 69.2308C39.3962 69.2308 30.7692 60.6038 30.7692 50C30.7692 39.3962 39.3962 30.7692 50 30.7692ZM50 38.4615C46.9398 38.4615 44.005 39.6772 41.8411 41.8411C39.6772 44.005 38.4615 46.9398 38.4615 50C38.4615 53.0602 39.6772 55.995 41.8411 58.1589C44.005 60.3228 46.9398 61.5385 50 61.5385C53.0602 61.5385 55.995 60.3228 58.1589 58.1589C60.3228 55.995 61.5385 53.0602 61.5385 50C61.5385 46.9398 60.3228 44.005 58.1589 41.8411C55.995 39.6772 53.0602 38.4615 50 38.4615Z" fill="#880202"/>
</g>
<defs>
<clipPath id="clip0_30_2">
<rect width="100" height="100" fill="white"/>
</clipPath>
</defs>
</svg>
