<svg width="100" height="100" viewBox="0 0 100 100" fill="none" xmlns="http://www.w3.org/2000/svg">
<path d="M50 0C77.6152 0 100 22.3848 100 50C100 77.6152 77.6152 100 50 100C22.3848 100 0 77.6152 0 50C0 22.3848 22.3848 0 50 0ZM67.2478 70.3804C68.1674 67.5587 72.4761 39.437 73.0087 33.8956C73.1696 32.2174 72.6391 31.1022 71.6 30.6043C70.3435 30 68.4826 30.3022 66.3239 31.0804C63.363 32.1478 25.5109 48.2196 23.3239 49.15C21.25 50.0304 19.2891 50.9913 19.2891 52.3826C19.2891 53.3609 19.8696 53.9109 21.4696 54.4826C23.1348 55.0761 27.3283 56.3478 29.8043 57.0304C32.1891 57.6891 34.9043 57.1174 36.4261 56.1717C38.0391 55.1696 56.6543 42.713 57.9913 41.6217C59.3261 40.5304 60.3913 41.9283 59.3 43.0217C58.2087 44.113 45.4304 56.5152 43.7456 58.2326C41.7 60.3174 43.1522 62.4783 44.5239 63.3435C46.0913 64.3304 57.363 71.8913 59.0609 73.1043C60.7587 74.3174 62.4804 74.8674 64.0565 74.8674C65.6326 74.8674 66.463 72.7913 67.2478 70.3804Z" fill="#880202"/>
</svg>
