<svg width="100" height="100" viewBox="0 0 100 100" fill="none" xmlns="http://www.w3.org/2000/svg">
<path d="M50 0C22.3865 0 0 22.3865 0 50C0 77.6135 22.3865 100 50 100C77.6135 100 100 77.6135 100 50C100 22.3865 77.6135 0 50 0ZM69.8519 71.1538C67.5077 63.8385 61.6654 58.1788 53.9385 57.4096V71.1538H52.7462C31.7231 71.1538 19.7308 56.7154 19.2308 32.6923H29.7635C30.1096 50.325 37.8731 57.7942 44.0231 59.3346V32.6923H53.9404V47.9C60.0135 47.2462 66.3942 40.3154 68.5462 32.6923H78.4635C76.8115 42.0865 69.8923 49.0154 64.9712 51.8654C69.8904 54.175 77.7712 60.2192 80.7692 71.1538H69.8519Z" fill="#880202"/>
</svg>
