<svg width="38" height="38" viewBox="0 0 38 38" fill="none" xmlns="http://www.w3.org/2000/svg">
<g clip-path="url(#clip0_1_108)">
<path d="M27.1933 29.0614V25.5545C27.1891 25.2172 27.2163 24.8802 27.2746 24.548L27.437 23.3296L22.1996 29.0614H27.1933Z" fill="white"/>
<path d="M33.1299 1.15338e-05H4.8771C4.23712 -0.00138174 3.60316 0.123467 3.0115 0.36741C2.41984 0.611353 1.8821 0.969599 1.42908 1.42164C0.976058 1.87368 0.616643 2.41063 0.371414 3.00176C0.126185 3.59289 -4.20472e-05 4.22658 -4.05305e-05 4.86655V33.1193C-0.00189909 33.7596 0.122606 34.394 0.366341 34.986C0.610075 35.5781 0.968248 36.1162 1.42033 36.5696C1.87242 37.023 2.40953 37.3828 3.00089 37.6282C3.59225 37.8737 4.22623 38 4.8665 38H33.1193C33.7599 38.0019 34.3945 37.8773 34.9868 37.6333C35.5791 37.3893 36.1174 37.0309 36.5708 36.5784C37.0243 36.1259 37.3839 35.5884 37.6292 34.9966C37.8744 34.4049 38.0004 33.7705 38 33.1299V4.87715C38.0014 4.23688 37.8764 3.60262 37.6322 3.01073C37.3881 2.41884 37.0295 1.88095 36.5771 1.42788C36.1247 0.974813 35.5873 0.615472 34.9958 0.370451C34.4042 0.12543 33.7702 -0.000454623 33.1299 1.15338e-05ZM17.3825 9.6554V32.964C17.3825 33.2168 17.282 33.4594 17.1032 33.6382C16.9244 33.817 16.6818 33.9175 16.429 33.9175H12.5725C12.4472 33.9175 12.3232 33.8928 12.2075 33.8449C12.0919 33.797 11.9867 33.7267 11.8982 33.6382C11.8097 33.5497 11.7394 33.4445 11.6915 33.3289C11.6436 33.2132 11.6189 33.0892 11.6189 32.964V9.6554C11.6189 9.53035 11.5942 9.40653 11.5463 9.29104C11.4983 9.17554 11.428 9.07066 11.3394 8.9824C11.2508 8.89414 11.1457 8.82423 11.03 8.7767C10.9144 8.72917 10.7904 8.70494 10.6654 8.7054H4.66167C4.40878 8.7054 4.16624 8.60494 3.98742 8.42612C3.8086 8.2473 3.70814 8.00476 3.70814 7.75187V5.0502C3.70814 4.79731 3.8086 4.55477 3.98742 4.37595C4.16624 4.19713 4.40878 4.09667 4.66167 4.09667H31.6007C31.8536 4.09667 32.0961 4.19713 32.275 4.37595C32.4538 4.55477 32.5542 4.79731 32.5542 5.0502V7.76953C32.5542 8.02242 32.4538 8.26496 32.275 8.44378C32.0961 8.6226 31.8536 8.72306 31.6007 8.72306H18.336C18.0865 8.72209 17.8466 8.81934 17.6682 8.9938C17.4897 9.16825 17.3871 9.40591 17.3825 9.6554ZM33.3665 31.018H30.5977V33.9034H27.1933V31.018H19V29.3405L27.1933 20.9353H30.6083V29.058H33.3771L33.3665 31.018Z" fill="white"/>
</g>
<defs>
<clipPath id="clip0_1_108">
<rect width="38" height="38" fill="white"/>
</clipPath>
</defs>
</svg>
